<?xml version="1.0" standalone="no"?>
<!DOCTYPE svg PUBLIC "-//W3C//DTD SVG 20010904//EN"
 "http://www.w3.org/TR/2001/REC-SVG-20010904/DTD/svg10.dtd">
<svg version="1.0" xmlns="http://www.w3.org/2000/svg"
 width="500.000000pt" height="500.000000pt" viewBox="0 0 500.000000 500.000000"
 preserveAspectRatio="xMidYMid meet">
<metadata>
Created by potrace 1.14, written by Peter Selinger 2001-2017
</metadata>
<g transform="translate(0.000000,500.000000) scale(0.100000,-0.100000)"
fill="#000000" stroke="none">
<path d="M967 3665 c-188 -48 -304 -164 -315 -315 -6 -89 16 -154 74 -219 24
-27 41 -52 37 -54 -5 -3 -23 -8 -42 -12 -20 -4 -51 -25 -76 -49 -98 -99 -77
-254 45 -320 44 -24 60 -28 111 -24 69 5 111 31 257 158 108 95 95 93 241 24
120 -56 172 -100 206 -169 23 -46 27 -65 23 -117 -7 -112 -67 -191 -185 -250
-76 -37 -186 -49 -275 -28 -128 30 -282 140 -367 263 -17 26 -36 47 -41 47 -6
0 -10 -40 -10 -90 l0 -90 53 -34 c237 -151 467 -174 683 -66 90 44 173 123
195 184 l12 35 39 -33 c21 -18 68 -47 104 -65 36 -18 63 -35 60 -38 -3 -4 -48
-9 -98 -13 l-93 -7 75 -1 c41 -1 91 2 110 8 30 9 52 3 185 -46 188 -71 255
-104 312 -157 58 -53 83 -106 83 -177 0 -107 -70 -203 -189 -259 -50 -23 -68
-26 -161 -26 -90 1 -114 5 -167 27 -107 45 -215 134 -285 236 -16 23 -33 42
-38 42 -6 0 -10 -38 -10 -85 l0 -85 43 -31 c115 -83 263 -132 402 -132 308 0
533 208 476 440 -33 131 -142 217 -387 303 l-92 32 48 63 c27 35 51 73 55 84
6 19 17 25 38 22 4 0 7 4 7 10 0 5 5 7 12 3 7 -4 8 -3 4 4 -5 9 -13 9 -28 1
-20 -11 -21 -9 -14 22 3 20 19 45 36 59 30 26 57 80 40 80 -6 0 -10 -8 -10
-18 0 -11 -9 -27 -20 -37 -18 -17 -20 -17 -14 -2 3 10 1 17 -5 17 -6 0 -11 15
-11 34 0 48 -35 154 -66 199 -14 21 -24 40 -22 43 8 7 119 -17 164 -36 55 -24
139 -101 167 -155 l22 -40 3 89 c2 49 -1 93 -5 97 -18 18 -173 50 -268 56 -95
6 -102 8 -139 40 -44 37 -105 69 -151 78 -16 3 -5 -4 26 -18 59 -25 107 -55
129 -82 11 -13 8 -15 -26 -15 -56 0 -157 -26 -218 -56 -62 -30 -113 -75 -150
-131 l-27 -41 -37 34 c-20 19 -80 55 -132 81 -52 26 -97 48 -100 51 -15 11
152 111 254 151 63 26 92 31 164 32 85 1 85 2 32 9 -110 16 -253 -34 -409
-143 l-64 -45 -61 20 c-33 12 -68 27 -77 34 -8 8 -22 14 -30 14 -8 0 -25 8
-38 17 -14 9 -21 11 -16 4 6 -10 2 -11 -16 -6 -44 14 -156 74 -188 101 -106
89 -97 256 20 366 117 109 340 137 495 61 62 -30 146 -109 164 -153 22 -53 31
-33 28 62 l-3 92 -90 24 c-116 31 -376 40 -468 17z m-91 -639 c49 -24 123 -56
164 -70 41 -15 81 -29 88 -31 24 -8 -202 -203 -267 -231 -78 -33 -179 -5 -230
66 -78 108 -32 250 96 296 53 18 50 19 149 -30z m1146 -11 c40 -59 60 -121 63
-205 4 -80 -12 -147 -34 -142 -9 2 -10 -2 -3 -15 15 -25 -22 -95 -45 -86 -11
4 -14 3 -9 -5 9 -15 -9 -48 -37 -67 -21 -13 -28 -13 -76 6 -195 74 -267 145
-265 264 1 138 120 256 285 284 79 13 90 10 121 -34z"/>
<path d="M2030 2751 c0 -25 6 -27 13 -6 4 8 2 17 -3 20 -6 4 -10 -3 -10 -14z"/>
<path d="M1972 2650 c0 -14 2 -19 5 -12 2 6 2 18 0 25 -3 6 -5 1 -5 -13z"/>
<path d="M894 3341 c21 -23 26 -26 26 -11 0 5 -10 15 -22 21 -23 12 -23 12 -4
-10z"/>
<path d="M780 3304 c0 -6 15 -23 32 -40 l33 -29 -25 30 c-14 17 -28 34 -32 40
-5 5 -8 5 -8 -1z"/>
<path d="M924 3243 c11 -13 15 -23 10 -23 -5 0 -1 -7 10 -15 10 -7 16 -17 13
-22 -3 -5 6 -13 19 -20 19 -9 24 -8 24 1 0 16 -32 46 -49 46 -7 0 -10 4 -7 9
3 4 -4 17 -17 27 l-22 19 19 -22z"/>
<path d="M1123 3103 c1 -12 7 -25 14 -27 17 -7 16 6 -1 30 -14 18 -15 18 -13
-3z"/>
<path d="M2906 2936 c21 -15 30 -14 19 3 -3 6 -14 11 -23 11 -13 0 -13 -2 4
-14z"/>
<path d="M3048 2939 c-3 -8 10 -52 29 -99 18 -47 32 -93 29 -102 -3 -14 2 -18
20 -18 20 0 23 3 14 18 -6 9 -28 62 -49 116 -21 55 -40 93 -43 85z"/>
<path d="M3180 2855 c5 -84 9 -98 30 -118 13 -12 18 -14 11 -4 -18 23 -26 147
-13 186 10 29 9 31 -11 31 -21 0 -22 -2 -17 -95z"/>
<path d="M3318 2866 c3 -62 0 -92 -11 -114 -11 -23 -12 -29 -2 -25 22 8 29 33
34 131 5 79 4 92 -10 92 -13 0 -15 -12 -11 -84z"/>
<path d="M3434 2845 c27 -57 53 -100 57 -94 8 14 -81 199 -97 199 -6 0 12 -47
40 -105z"/>
<path d="M3558 2835 c-3 -97 -1 -115 12 -115 12 0 15 19 15 115 0 82 -3 115
-12 115 -8 0 -13 -35 -15 -115z"/>
<path d="M3655 2884 c31 -55 36 -73 33 -115 -2 -40 0 -49 13 -49 23 0 13 92
-17 152 -13 26 -24 54 -24 63 0 9 -9 15 -21 15 -19 0 -18 -4 16 -66z"/>
<path d="M3757 2923 c-7 -37 -5 -37 15 -2 13 22 14 29 4 29 -8 0 -16 -12 -19
-27z"/>
<path d="M2802 2928 c-17 -17 -15 -53 4 -69 10 -8 40 -25 68 -39 43 -21 51
-29 51 -53 -1 -24 1 -25 14 -12 25 25 -1 62 -66 90 -68 30 -77 42 -57 72 15
24 6 31 -14 11z"/>
<path d="M3880 2931 c0 -5 15 -49 34 -97 25 -64 31 -92 24 -101 -8 -10 -4 -13
14 -13 l25 0 -41 110 c-36 95 -56 132 -56 101z"/>
<path d="M2654 2650 c0 -157 2 -221 3 -142 2 78 2 206 0 285 -1 78 -3 14 -3
-143z"/>
<path d="M2111 2839 c0 -8 4 -23 9 -34 8 -17 9 -16 7 7 -3 28 -18 53 -16 27z"/>
<path d="M3001 2812 c-26 -22 -32 -33 -29 -57 3 -27 7 -30 38 -32 29 -2 31 -1
10 5 -36 11 -38 48 -4 83 35 37 28 37 -15 1z"/>
<path d="M3827 2802 c-29 -31 -34 -51 -15 -70 14 -14 64 -16 72 -4 3 5 -8 6
-24 4 -40 -6 -50 29 -21 69 27 37 22 37 -12 1z"/>
<path d="M2790 2756 c0 -8 9 -20 21 -26 33 -18 38 -7 7 18 -22 18 -28 20 -28
8z"/>
<path d="M3388 2748 c-4 -23 -2 -28 15 -28 14 0 17 3 10 13 -6 6 -12 19 -15
27 -3 9 -7 4 -10 -12z"/>
<path d="M2135 2690 c4 -6 11 -8 16 -5 14 9 11 15 -7 15 -8 0 -12 -5 -9 -10z"/>
<path d="M2906 2616 c21 -15 30 -14 19 3 -3 6 -14 11 -23 11 -13 0 -13 -2 4
-14z"/>
<path d="M2985 2515 c0 -87 3 -115 13 -115 10 0 12 26 10 112 -4 151 -23 154
-23 3z"/>
<path d="M3090 2623 c8 -3 21 -10 28 -16 8 -7 12 -5 12 7 0 11 -8 16 -27 15
-16 0 -22 -3 -13 -6z"/>
<path d="M3155 2495 c0 -111 2 -132 13 -118 8 11 12 53 12 119 0 56 3 109 6
118 4 11 0 16 -12 16 -18 0 -19 -10 -19 -135z"/>
<path d="M3425 2515 c0 -85 3 -115 13 -115 9 0 12 27 12 99 0 55 3 106 6 115
4 11 0 16 -12 16 -17 0 -19 -10 -19 -115z"/>
<path d="M2802 2608 c-17 -17 -15 -53 4 -69 10 -8 40 -25 68 -39 43 -21 51
-29 51 -53 -1 -24 1 -25 14 -12 25 25 -1 62 -66 90 -68 30 -77 42 -57 72 15
24 6 31 -14 11z"/>
<path d="M3295 2598 c4 -13 20 -56 36 -97 17 -41 28 -80 25 -88 -4 -9 3 -13
19 -13 l24 0 -18 33 c-10 17 -31 67 -46 110 -15 42 -32 77 -37 77 -5 0 -6 -10
-3 -22z"/>
<path d="M3048 2523 c22 -11 36 -13 42 -7 7 7 7 11 -2 11 -7 0 -26 3 -43 7
l-30 7 33 -18z"/>
<path d="M3262 2504 c-39 -31 -53 -62 -40 -86 9 -19 62 -25 72 -9 4 5 -3 7
-14 4 -28 -7 -52 15 -44 41 3 12 20 33 37 48 41 35 32 36 -11 2z"/>
<path d="M1566 2447 c-15 -11 -17 -17 -7 -35 14 -26 33 -28 52 -6 9 11 10 20
3 32 -14 22 -27 24 -48 9z"/>
<path d="M2790 2436 c0 -8 9 -20 21 -26 33 -18 38 -7 7 18 -22 18 -28 20 -28
8z"/>
<path d="M3115 2421 c-6 -5 -19 -11 -30 -14 -13 -3 -9 -5 13 -6 22 -1 32 4 32
14 0 17 -2 18 -15 6z"/>
<path d="M3535 2410 c-18 -8 -17 -9 8 -9 15 -1 27 4 27 9 0 12 -8 12 -35 0z"/>
<path d="M2247 1933 c-12 -12 -7 -22 8 -17 8 4 15 10 15 15 0 11 -14 12 -23 2z"/>
<path d="M2190 1875 c-7 -9 -11 -17 -9 -20 3 -2 10 5 17 15 14 24 10 26 -8 5z"/>
<path d="M2190 1819 c0 -5 5 -7 10 -4 6 3 10 8 10 11 0 2 -4 4 -10 4 -5 0 -10
-5 -10 -11z"/>
</g>
</svg>
